solid OpenSCAD_Model
  facet normal 0 1 -0
    outer loop
      vertex -1.1 -3.75 2.5
      vertex -2.1 -3.75 13.5
      vertex -1.1 -3.75 13.5
    endloop
  endfacet
  facet normal 0 1 0
    outer loop
      vertex -2.1 -3.75 13.5
      vertex -1.1 -3.75 2.5
      vertex -2.1 -3.75 2.5
    endloop
  endfacet
  facet normal 0 1 -0
    outer loop
      vertex 1.5 -3.75 2.5
      vertex 0.5 -3.75 13.5
      vertex 1.5 -3.75 13.5
    endloop
  endfacet
  facet normal 0 1 0
    outer loop
      vertex 0.5 -3.75 13.5
      vertex 1.5 -3.75 2.5
      vertex 0.5 -3.75 2.5
    endloop
  endfacet
  facet normal 0 -1 0
    outer loop
      vertex -2.1 3.65 2.5
      vertex -1.1 3.65 13.5
      vertex -2.1 3.65 13.5
    endloop
  endfacet
  facet normal 0 -1 -0
    outer loop
      vertex -1.1 3.65 13.5
      vertex -2.1 3.65 2.5
      vertex -1.1 3.65 2.5
    endloop
  endfacet
  facet normal 0 -1 0
    outer loop
      vertex 0.5 3.65 2.5
      vertex 1.5 3.65 13.5
      vertex 0.5 3.65 13.5
    endloop
  endfacet
  facet normal 0 -1 -0
    outer loop
      vertex 1.5 3.65 13.5
      vertex 0.5 3.65 2.5
      vertex 1.5 3.65 2.5
    endloop
  endfacet
  facet normal 1 -0 0
    outer loop
      vertex -1.1 -5.25 13.5
      vertex -1.1 -3.75 2.5
      vertex -1.1 -3.75 13.5
    endloop
  endfacet
  facet normal 1 0 0
    outer loop
      vertex -1.1 -3.75 2.5
      vertex -1.1 -5.25 13.5
      vertex -1.1 -5.25 2.5
    endloop
  endfacet
  facet normal 1 -0 0
    outer loop
      vertex -1.1 3.65 13.5
      vertex -1.1 5.15 2.5
      vertex -1.1 5.15 13.5
    endloop
  endfacet
  facet normal 1 0 0
    outer loop
      vertex -1.1 5.15 2.5
      vertex -1.1 3.65 13.5
      vertex -1.1 3.65 2.5
    endloop
  endfacet
  facet normal -1 0 0
    outer loop
      vertex 0.5 3.65 2.5
      vertex 0.5 5.15 13.5
      vertex 0.5 5.15 2.5
    endloop
  endfacet
  facet normal -1 -0 0
    outer loop
      vertex 0.5 5.15 13.5
      vertex 0.5 3.65 2.5
      vertex 0.5 3.65 13.5
    endloop
  endfacet
  facet normal -1 0 0
    outer loop
      vertex 0.5 -5.25 2.5
      vertex 0.5 -3.75 13.5
      vertex 0.5 -3.75 2.5
    endloop
  endfacet
  facet normal -1 -0 0
    outer loop
      vertex 0.5 -3.75 13.5
      vertex 0.5 -5.25 2.5
      vertex 0.5 -5.25 13.5
    endloop
  endfacet
  facet normal 0 1 -0
    outer loop
      vertex 0.5 -5.25 2.5
      vertex -1.1 -5.25 13.5
      vertex 0.5 -5.25 13.5
    endloop
  endfacet
  facet normal 0 1 0
    outer loop
      vertex -1.1 -5.25 13.5
      vertex 0.5 -5.25 2.5
      vertex -1.1 -5.25 2.5
    endloop
  endfacet
  facet normal 0 -1 0
    outer loop
      vertex -1.1 5.15 2.5
      vertex 0.5 5.15 13.5
      vertex -1.1 5.15 13.5
    endloop
  endfacet
  facet normal 0 -1 -0
    outer loop
      vertex 0.5 5.15 13.5
      vertex -1.1 5.15 2.5
      vertex 0.5 5.15 2.5
    endloop
  endfacet
  facet normal 0 0 -1
    outer loop
      vertex -0.495476 -5.97951 2.5
      vertex 0.5 -5.25 2.5
      vertex 1.47291 -5.8164 2.5
    endloop
  endfacet
  facet normal 0 0 -1
    outer loop
      vertex -0.495476 -5.97951 2.5
      vertex -1.1 -5.25 2.5
      vertex 0.5 -5.25 2.5
    endloop
  endfacet
  facet normal 0 0 -1
    outer loop
      vertex -2.1 -5.57319 2.5
      vertex -1.1 -5.25 2.5
      vertex -0.495476 -5.97951 2.5
    endloop
  endfacet
  facet normal 0 0 -1
    outer loop
      vertex -2.1 -3.75 2.5
      vertex -1.1 -5.25 2.5
      vertex -2.1 -5.57319 2.5
    endloop
  endfacet
  facet normal 0 0 -1
    outer loop
      vertex -1.1 -5.25 2.5
      vertex -2.1 -3.75 2.5
      vertex -1.1 -3.75 2.5
    endloop
  endfacet
  facet normal 0 0 -1
    outer loop
      vertex 0.5 -5.25 2.5
      vertex 1.5 -5.80452 2.5
      vertex 1.47291 -5.8164 2.5
    endloop
  endfacet
  facet normal 0 0 -1
    outer loop
      vertex 1.5 -5.80452 2.5
      vertex 0.5 -5.25 2.5
      vertex 1.5 -3.75 2.5
    endloop
  endfacet
  facet normal -0 0 -1
    outer loop
      vertex 1.5 -3.75 2.5
      vertex 0.5 -5.25 2.5
      vertex 0.5 -3.75 2.5
    endloop
  endfacet
  facet normal 0 0 -1
    outer loop
      vertex -1.1 3.65 2.5
      vertex -2.1 3.65 2.5
      vertex -1.1 5.15 2.5
    endloop
  endfacet
  facet normal 0 0 -1
    outer loop
      vertex 0.5 5.15 2.5
      vertex 1.5 5.80452 2.5
      vertex 1.5 3.65 2.5
    endloop
  endfacet
  facet normal 0 0 -1
    outer loop
      vertex 0.5 5.15 2.5
      vertex 1.5 3.65 2.5
      vertex 0.5 3.65 2.5
    endloop
  endfacet
  facet normal -0 0 -1
    outer loop
      vertex 1.5 5.80452 2.5
      vertex 0.5 5.15 2.5
      vertex 1.47291 5.8164 2.5
    endloop
  endfacet
  facet normal 0 0 -1
    outer loop
      vertex 0.5 5.15 2.5
      vertex -0.495476 5.97951 2.5
      vertex 1.47291 5.8164 2.5
    endloop
  endfacet
  facet normal 0 0 -1
    outer loop
      vertex -1.1 5.15 2.5
      vertex -0.495476 5.97951 2.5
      vertex 0.5 5.15 2.5
    endloop
  endfacet
  facet normal 0 0 -1
    outer loop
      vertex -1.1 5.15 2.5
      vertex -2.1 5.57319 2.5
      vertex -0.495476 5.97951 2.5
    endloop
  endfacet
  facet normal 0 0 -1
    outer loop
      vertex -2.1 5.57319 2.5
      vertex -1.1 5.15 2.5
      vertex -2.1 3.65 2.5
    endloop
  endfacet
  facet normal -1 0 0
    outer loop
      vertex -2.1 -5.57319 4
      vertex -2.1 -3.75 2.5
      vertex -2.1 -5.57319 2.5
    endloop
  endfacet
  facet normal -1 0 0
    outer loop
      vertex -2.1 -3.75 2.5
      vertex -2.1 -5.57319 4
      vertex -2.1 -3.75 13.5
    endloop
  endfacet
  facet normal -1 0 0
    outer loop
      vertex -2.1 -6.25 13.5
      vertex -2.1 -5.57319 4
      vertex -2.1 -6.25 4
    endloop
  endfacet
  facet normal -1 0 0
    outer loop
      vertex -2.1 -5.57319 4
      vertex -2.1 -6.25 13.5
      vertex -2.1 -3.75 13.5
    endloop
  endfacet
  facet normal -1 0 0
    outer loop
      vertex -2.1 5.57319 2.5
      vertex -2.1 3.65 2.5
      vertex -2.1 5.57319 4
    endloop
  endfacet
  facet normal -1 0 0
    outer loop
      vertex -2.1 5.57319 4
      vertex -2.1 6.15 13.5
      vertex -2.1 6.15 4
    endloop
  endfacet
  facet normal -1 0 0
    outer loop
      vertex -2.1 3.65 13.5
      vertex -2.1 5.57319 4
      vertex -2.1 3.65 2.5
    endloop
  endfacet
  facet normal -1 0 0
    outer loop
      vertex -2.1 5.57319 4
      vertex -2.1 3.65 13.5
      vertex -2.1 6.15 13.5
    endloop
  endfacet
  facet normal 0 0 1
    outer loop
      vertex -1.1 -3.75 13.5
      vertex -2.1 -3.75 13.5
      vertex -1.1 -5.25 13.5
    endloop
  endfacet
  facet normal 0 0 1
    outer loop
      vertex 0.5 -5.25 13.5
      vertex 1.5 -3.75 13.5
      vertex 0.5 -3.75 13.5
    endloop
  endfacet
  facet normal 0 0 1
    outer loop
      vertex 1.5 -3.75 13.5
      vertex 0.5 -5.25 13.5
      vertex 1.5 -6.25 13.5
    endloop
  endfacet
  facet normal -0 0 1
    outer loop
      vertex -1.1 -5.25 13.5
      vertex 1.5 -6.25 13.5
      vertex 0.5 -5.25 13.5
    endloop
  endfacet
  facet normal 0 0 1
    outer loop
      vertex -1.1 -5.25 13.5
      vertex -2.1 -6.25 13.5
      vertex 1.5 -6.25 13.5
    endloop
  endfacet
  facet normal 0 0 1
    outer loop
      vertex -2.1 -6.25 13.5
      vertex -1.1 -5.25 13.5
      vertex -2.1 -3.75 13.5
    endloop
  endfacet
  facet normal 0 0 1
    outer loop
      vertex 1.5 6.15 13.5
      vertex 0.5 5.15 13.5
      vertex 1.5 3.65 13.5
    endloop
  endfacet
  facet normal 0 0 1
    outer loop
      vertex 1.5 6.15 13.5
      vertex -1.1 5.15 13.5
      vertex 0.5 5.15 13.5
    endloop
  endfacet
  facet normal -0 0 1
    outer loop
      vertex -2.1 6.15 13.5
      vertex -1.1 5.15 13.5
      vertex 1.5 6.15 13.5
    endloop
  endfacet
  facet normal 0 0 1
    outer loop
      vertex -2.1 3.65 13.5
      vertex -1.1 5.15 13.5
      vertex -2.1 6.15 13.5
    endloop
  endfacet
  facet normal 0 0 1
    outer loop
      vertex -1.1 5.15 13.5
      vertex -2.1 3.65 13.5
      vertex -1.1 3.65 13.5
    endloop
  endfacet
  facet normal 0 0 1
    outer loop
      vertex 1.5 3.65 13.5
      vertex 0.5 5.15 13.5
      vertex 0.5 3.65 13.5
    endloop
  endfacet
  facet normal 1 0 0
    outer loop
      vertex 1.5 6.15 13.5
      vertex 1.5 5.80452 4
      vertex 1.5 6.15 4
    endloop
  endfacet
  facet normal 1 -0 0
    outer loop
      vertex 1.5 3.65 13.5
      vertex 1.5 5.80452 4
      vertex 1.5 6.15 13.5
    endloop
  endfacet
  facet normal 1 0 0
    outer loop
      vertex 1.5 3.65 2.5
      vertex 1.5 5.80452 4
      vertex 1.5 3.65 13.5
    endloop
  endfacet
  facet normal 1 0 0
    outer loop
      vertex 1.5 5.80452 4
      vertex 1.5 3.65 2.5
      vertex 1.5 5.80452 2.5
    endloop
  endfacet
  facet normal 1 0 0
    outer loop
      vertex 1.5 -3.75 13.5
      vertex 1.5 -5.80452 4
      vertex 1.5 -3.75 2.5
    endloop
  endfacet
  facet normal 1 -0 0
    outer loop
      vertex 1.5 -6.25 13.5
      vertex 1.5 -5.80452 4
      vertex 1.5 -3.75 13.5
    endloop
  endfacet
  facet normal 1 0 0
    outer loop
      vertex 1.5 -5.80452 4
      vertex 1.5 -6.25 13.5
      vertex 1.5 -6.25 4
    endloop
  endfacet
  facet normal 1 0 0
    outer loop
      vertex 1.5 -3.75 2.5
      vertex 1.5 -5.80452 4
      vertex 1.5 -5.80452 2.5
    endloop
  endfacet
  facet normal 0 -1 0
    outer loop
      vertex -2.1 -6.25 4
      vertex 1.5 -6.25 13.5
      vertex -2.1 -6.25 13.5
    endloop
  endfacet
  facet normal 0 -1 -0
    outer loop
      vertex 1.5 -6.25 13.5
      vertex -2.1 -6.25 4
      vertex 1.5 -6.25 4
    endloop
  endfacet
  facet normal 0 1 -0
    outer loop
      vertex 1.5 6.15 4
      vertex -2.1 6.15 13.5
      vertex 1.5 6.15 13.5
    endloop
  endfacet
  facet normal 0 1 0
    outer loop
      vertex -2.1 6.15 13.5
      vertex 1.5 6.15 4
      vertex -2.1 6.15 4
    endloop
  endfacet
  facet normal -0.989821 0.142315 0
    outer loop
      vertex -7 0 0
      vertex -6.71645 1.97213 4
      vertex -6.71645 1.97213 0
    endloop
  endfacet
  facet normal -0.989821 0.142315 0
    outer loop
      vertex -6.71645 1.97213 4
      vertex -7 0 0
      vertex -7 0 4
    endloop
  endfacet
  facet normal -0.989821 -0.142315 0
    outer loop
      vertex -6.71645 -1.97213 0
      vertex -7 0 4
      vertex -7 0 0
    endloop
  endfacet
  facet normal -0.989821 -0.142315 0
    outer loop
      vertex -7 0 4
      vertex -6.71645 -1.97213 0
      vertex -6.71645 -1.97213 4
    endloop
  endfacet
  facet normal 0 1 -0
    outer loop
      vertex 0.996203 6.92875 0
      vertex -0.996203 6.92875 4
      vertex 0.996203 6.92875 4
    endloop
  endfacet
  facet normal 0 1 0
    outer loop
      vertex -0.996203 6.92875 4
      vertex 0.996203 6.92875 0
      vertex -0.996203 6.92875 0
    endloop
  endfacet
  facet normal 0.989821 -0.142315 0
    outer loop
      vertex 6.71645 -1.97213 4
      vertex 7 0 0
      vertex 7 0 4
    endloop
  endfacet
  facet normal 0.989821 -0.142315 0
    outer loop
      vertex 7 0 0
      vertex 6.71645 -1.97213 4
      vertex 6.71645 -1.97213 0
    endloop
  endfacet
  facet normal 0.75575 0.654861 0
    outer loop
      vertex 5.88877 3.78448 4
      vertex 4.58402 5.29025 0
      vertex 4.58402 5.29025 4
    endloop
  endfacet
  facet normal 0.75575 0.654861 0
    outer loop
      vertex 4.58402 5.29025 0
      vertex 5.88877 3.78448 4
      vertex 5.88877 3.78448 0
    endloop
  endfacet
  facet normal 0.909632 0.415415 0
    outer loop
      vertex 6.71645 1.97213 4
      vertex 5.88877 3.78448 0
      vertex 5.88877 3.78448 4
    endloop
  endfacet
  facet normal 0.909632 0.415415 0
    outer loop
      vertex 5.88877 3.78448 0
      vertex 6.71645 1.97213 4
      vertex 6.71645 1.97213 0
    endloop
  endfacet
  facet normal 0.281733 0.959493 -0
    outer loop
      vertex 2.9079 6.36742 0
      vertex 0.996203 6.92875 4
      vertex 2.9079 6.36742 4
    endloop
  endfacet
  facet normal 0.281733 0.959493 0
    outer loop
      vertex 0.996203 6.92875 4
      vertex 2.9079 6.36742 0
      vertex 0.996203 6.92875 0
    endloop
  endfacet
  facet normal -0.281733 0.959493 0
    outer loop
      vertex -0.996203 6.92875 0
      vertex -2.9079 6.36742 4
      vertex -0.996203 6.92875 4
    endloop
  endfacet
  facet normal -0.281733 0.959493 0
    outer loop
      vertex -2.9079 6.36742 4
      vertex -0.996203 6.92875 0
      vertex -2.9079 6.36742 0
    endloop
  endfacet
  facet normal -0.909632 0.415415 0
    outer loop
      vertex -6.71645 1.97213 0
      vertex -5.88877 3.78448 4
      vertex -5.88877 3.78448 0
    endloop
  endfacet
  facet normal -0.909632 0.415415 0
    outer loop
      vertex -5.88877 3.78448 4
      vertex -6.71645 1.97213 0
      vertex -6.71645 1.97213 4
    endloop
  endfacet
  facet normal -0.540641 0.841254 0
    outer loop
      vertex -2.9079 6.36742 0
      vertex -4.58402 5.29025 4
      vertex -2.9079 6.36742 4
    endloop
  endfacet
  facet normal -0.540641 0.841254 0
    outer loop
      vertex -4.58402 5.29025 4
      vertex -2.9079 6.36742 0
      vertex -4.58402 5.29025 0
    endloop
  endfacet
  facet normal 0.281733 -0.959493 0
    outer loop
      vertex 0.996203 -6.92875 0
      vertex 2.9079 -6.36742 4
      vertex 0.996203 -6.92875 4
    endloop
  endfacet
  facet normal 0.281733 -0.959493 0
    outer loop
      vertex 2.9079 -6.36742 4
      vertex 0.996203 -6.92875 0
      vertex 2.9079 -6.36742 0
    endloop
  endfacet
  facet normal 0.540641 0.841254 -0
    outer loop
      vertex 4.58402 5.29025 0
      vertex 2.9079 6.36742 4
      vertex 4.58402 5.29025 4
    endloop
  endfacet
  facet normal 0.540641 0.841254 0
    outer loop
      vertex 2.9079 6.36742 4
      vertex 4.58402 5.29025 0
      vertex 2.9079 6.36742 0
    endloop
  endfacet
  facet normal 0 0 1
    outer loop
      vertex -2.1 -5.57319 4
      vertex -2.41017 -5.49464 4
      vertex -2.1 -6.25 4
    endloop
  endfacet
  facet normal 0 0 1
    outer loop
      vertex 0.996203 6.92875 4
      vertex 1.5 6.15 4
      vertex 2.9079 6.36742 4
    endloop
  endfacet
  facet normal -0 0 1
    outer loop
      vertex -0.996203 6.92875 4
      vertex 1.5 6.15 4
      vertex 0.996203 6.92875 4
    endloop
  endfacet
  facet normal 0 0 1
    outer loop
      vertex -0.996203 6.92875 4
      vertex -2.1 6.15 4
      vertex 1.5 6.15 4
    endloop
  endfacet
  facet normal 0 0 1
    outer loop
      vertex -2.1 6.15 4
      vertex -2.41017 5.49464 4
      vertex -2.1 5.57319 4
    endloop
  endfacet
  facet normal -0 0 1
    outer loop
      vertex -2.9079 6.36742 4
      vertex -2.1 6.15 4
      vertex -0.996203 6.92875 4
    endloop
  endfacet
  facet normal 0 0 1
    outer loop
      vertex -2.9079 6.36742 4
      vertex -2.41017 5.49464 4
      vertex -2.1 6.15 4
    endloop
  endfacet
  facet normal 0 0 1
    outer loop
      vertex -4.58402 5.29025 4
      vertex -2.41017 5.49464 4
      vertex -2.9079 6.36742 4
    endloop
  endfacet
  facet normal 0 0 1
    outer loop
      vertex -2.41017 5.49464 4
      vertex -4.58402 5.29025 4
      vertex -4.06369 4.41434 4
    endloop
  endfacet
  facet normal 0 0 1
    outer loop
      vertex -5.88877 3.78448 4
      vertex -4.06369 4.41434 4
      vertex -4.58402 5.29025 4
    endloop
  endfacet
  facet normal 0 0 1
    outer loop
      vertex -4.06369 4.41434 4
      vertex -5.88877 3.78448 4
      vertex -5.27684 2.85568 4
    endloop
  endfacet
  facet normal 0 0 1
    outer loop
      vertex -6.71645 1.97213 4
      vertex -5.27684 2.85568 4
      vertex -5.88877 3.78448 4
    endloop
  endfacet
  facet normal 0 0 1
    outer loop
      vertex -7 0 4
      vertex -5.91817 0.987567 4
      vertex -6.71645 1.97213 4
    endloop
  endfacet
  facet normal 0 0 1
    outer loop
      vertex -5.27684 2.85568 4
      vertex -6.71645 1.97213 4
      vertex -5.91817 0.987567 4
    endloop
  endfacet
  facet normal 0 0 1
    outer loop
      vertex 6 0 4
      vertex 7 0 4
      vertex 6.71645 1.97213 4
    endloop
  endfacet
  facet normal 0 0 1
    outer loop
      vertex 7 0 4
      vertex 6 0 4
      vertex 6.71645 -1.97213 4
    endloop
  endfacet
  facet normal 0 0 1
    outer loop
      vertex 5.6749 1.9482 4
      vertex 6.71645 1.97213 4
      vertex 5.88877 3.78448 4
    endloop
  endfacet
  facet normal 0 0 1
    outer loop
      vertex 6.71645 1.97213 4
      vertex 5.6749 1.9482 4
      vertex 6 0 4
    endloop
  endfacet
  facet normal 0 0 1
    outer loop
      vertex 5.88877 3.78448 4
      vertex 4.73484 3.68528 4
      vertex 5.6749 1.9482 4
    endloop
  endfacet
  facet normal 0 0 1
    outer loop
      vertex 4.58402 5.29025 4
      vertex 4.73484 3.68528 4
      vertex 5.88877 3.78448 4
    endloop
  endfacet
  facet normal 0 0 1
    outer loop
      vertex 4.58402 5.29025 4
      vertex 3.28169 5.023 4
      vertex 4.73484 3.68528 4
    endloop
  endfacet
  facet normal 0 0 1
    outer loop
      vertex 2.9079 6.36742 4
      vertex 3.28169 5.023 4
      vertex 4.58402 5.29025 4
    endloop
  endfacet
  facet normal 0 0 1
    outer loop
      vertex 1.5 5.80452 4
      vertex 2.9079 6.36742 4
      vertex 1.5 6.15 4
    endloop
  endfacet
  facet normal 0 0 1
    outer loop
      vertex 2.9079 6.36742 4
      vertex 1.5 5.80452 4
      vertex 3.28169 5.023 4
    endloop
  endfacet
  facet normal -0 0 1
    outer loop
      vertex 5.6749 -1.9482 4
      vertex 6.71645 -1.97213 4
      vertex 6 0 4
    endloop
  endfacet
  facet normal 0 0 1
    outer loop
      vertex 6.71645 -1.97213 4
      vertex 5.6749 -1.9482 4
      vertex 5.88877 -3.78448 4
    endloop
  endfacet
  facet normal -0 0 1
    outer loop
      vertex 4.73484 -3.68528 4
      vertex 5.88877 -3.78448 4
      vertex 5.6749 -1.9482 4
    endloop
  endfacet
  facet normal 0 0 1
    outer loop
      vertex 4.73484 -3.68528 4
      vertex 4.58402 -5.29025 4
      vertex 5.88877 -3.78448 4
    endloop
  endfacet
  facet normal -0 0 1
    outer loop
      vertex 3.28169 -5.023 4
      vertex 4.58402 -5.29025 4
      vertex 4.73484 -3.68528 4
    endloop
  endfacet
  facet normal 0 0 1
    outer loop
      vertex 3.28169 -5.023 4
      vertex 2.9079 -6.36742 4
      vertex 4.58402 -5.29025 4
    endloop
  endfacet
  facet normal -0 0 1
    outer loop
      vertex 1.5 -5.80452 4
      vertex 2.9079 -6.36742 4
      vertex 3.28169 -5.023 4
    endloop
  endfacet
  facet normal -0 0 1
    outer loop
      vertex 1.5 -6.25 4
      vertex 2.9079 -6.36742 4
      vertex 1.5 -5.80452 4
    endloop
  endfacet
  facet normal 0 0 1
    outer loop
      vertex 1.5 -6.25 4
      vertex 0.996203 -6.92875 4
      vertex 2.9079 -6.36742 4
    endloop
  endfacet
  facet normal 0 0 1
    outer loop
      vertex 1.5 -6.25 4
      vertex -0.996203 -6.92875 4
      vertex 0.996203 -6.92875 4
    endloop
  endfacet
  facet normal -0 0 1
    outer loop
      vertex -2.1 -6.25 4
      vertex -0.996203 -6.92875 4
      vertex 1.5 -6.25 4
    endloop
  endfacet
  facet normal 0 0 1
    outer loop
      vertex -2.1 -6.25 4
      vertex -2.9079 -6.36742 4
      vertex -0.996203 -6.92875 4
    endloop
  endfacet
  facet normal 0 0 1
    outer loop
      vertex -2.41017 -5.49464 4
      vertex -2.9079 -6.36742 4
      vertex -2.1 -6.25 4
    endloop
  endfacet
  facet normal -0 0 1
    outer loop
      vertex -4.58402 -5.29025 4
      vertex -2.41017 -5.49464 4
      vertex -4.06369 -4.41434 4
    endloop
  endfacet
  facet normal 0 0 1
    outer loop
      vertex -2.41017 -5.49464 4
      vertex -4.58402 -5.29025 4
      vertex -2.9079 -6.36742 4
    endloop
  endfacet
  facet normal -0 0 1
    outer loop
      vertex -5.88877 -3.78448 4
      vertex -4.06369 -4.41434 4
      vertex -5.27684 -2.85568 4
    endloop
  endfacet
  facet normal 0 0 1
    outer loop
      vertex -4.06369 -4.41434 4
      vertex -5.88877 -3.78448 4
      vertex -4.58402 -5.29025 4
    endloop
  endfacet
  facet normal -0 0 1
    outer loop
      vertex -6.71645 -1.97213 4
      vertex -5.27684 -2.85568 4
      vertex -5.91817 -0.987567 4
    endloop
  endfacet
  facet normal 0 0 1
    outer loop
      vertex -5.91817 0.987567 4
      vertex -7 0 4
      vertex -5.91817 -0.987567 4
    endloop
  endfacet
  facet normal 0 0 1
    outer loop
      vertex -5.27684 -2.85568 4
      vertex -6.71645 -1.97213 4
      vertex -5.88877 -3.78448 4
    endloop
  endfacet
  facet normal 0 0 1
    outer loop
      vertex -5.91817 -0.987567 4
      vertex -7 0 4
      vertex -6.71645 -1.97213 4
    endloop
  endfacet
  facet normal -0.75575 0.654861 0
    outer loop
      vertex -5.88877 3.78448 0
      vertex -4.58402 5.29025 4
      vertex -4.58402 5.29025 0
    endloop
  endfacet
  facet normal -0.75575 0.654861 0
    outer loop
      vertex -4.58402 5.29025 4
      vertex -5.88877 3.78448 0
      vertex -5.88877 3.78448 4
    endloop
  endfacet
  facet normal 0.989821 0.142315 0
    outer loop
      vertex 7 0 4
      vertex 6.71645 1.97213 0
      vertex 6.71645 1.97213 4
    endloop
  endfacet
  facet normal 0.989821 0.142315 0
    outer loop
      vertex 6.71645 1.97213 0
      vertex 7 0 4
      vertex 7 0 0
    endloop
  endfacet
  facet normal -0.540641 -0.841254 0
    outer loop
      vertex -4.58402 -5.29025 0
      vertex -2.9079 -6.36742 4
      vertex -4.58402 -5.29025 4
    endloop
  endfacet
  facet normal -0.540641 -0.841254 -0
    outer loop
      vertex -2.9079 -6.36742 4
      vertex -4.58402 -5.29025 0
      vertex -2.9079 -6.36742 0
    endloop
  endfacet
  facet normal -0.909632 -0.415415 0
    outer loop
      vertex -5.88877 -3.78448 0
      vertex -6.71645 -1.97213 4
      vertex -6.71645 -1.97213 0
    endloop
  endfacet
  facet normal -0.909632 -0.415415 0
    outer loop
      vertex -6.71645 -1.97213 4
      vertex -5.88877 -3.78448 0
      vertex -5.88877 -3.78448 4
    endloop
  endfacet
  facet normal 0.75575 -0.654861 0
    outer loop
      vertex 4.58402 -5.29025 4
      vertex 5.88877 -3.78448 0
      vertex 5.88877 -3.78448 4
    endloop
  endfacet
  facet normal 0.75575 -0.654861 0
    outer loop
      vertex 5.88877 -3.78448 0
      vertex 4.58402 -5.29025 4
      vertex 4.58402 -5.29025 0
    endloop
  endfacet
  facet normal 0 -1 0
    outer loop
      vertex -0.996203 -6.92875 0
      vertex 0.996203 -6.92875 4
      vertex -0.996203 -6.92875 4
    endloop
  endfacet
  facet normal 0 -1 -0
    outer loop
      vertex 0.996203 -6.92875 4
      vertex -0.996203 -6.92875 0
      vertex 0.996203 -6.92875 0
    endloop
  endfacet
  facet normal 0 0 -1
    outer loop
      vertex 6 0 0
      vertex 7 0 0
      vertex 6.71645 -1.97213 0
    endloop
  endfacet
  facet normal 0 0 -1
    outer loop
      vertex 7 0 0
      vertex 6 0 0
      vertex 6.71645 1.97213 0
    endloop
  endfacet
  facet normal 0 0 -1
    outer loop
      vertex 5.6749 -1.9482 0
      vertex 6.71645 -1.97213 0
      vertex 5.88877 -3.78448 0
    endloop
  endfacet
  facet normal 0 0 -1
    outer loop
      vertex 6.71645 -1.97213 0
      vertex 5.6749 -1.9482 0
      vertex 6 0 0
    endloop
  endfacet
  facet normal 0 0 -1
    outer loop
      vertex 5.88877 -3.78448 0
      vertex 4.73484 -3.68528 0
      vertex 5.6749 -1.9482 0
    endloop
  endfacet
  facet normal 0 0 -1
    outer loop
      vertex 4.58402 -5.29025 0
      vertex 4.73484 -3.68528 0
      vertex 5.88877 -3.78448 0
    endloop
  endfacet
  facet normal 0 0 -1
    outer loop
      vertex 4.58402 -5.29025 0
      vertex 3.28169 -5.023 0
      vertex 4.73484 -3.68528 0
    endloop
  endfacet
  facet normal 0 0 -1
    outer loop
      vertex 2.9079 -6.36742 0
      vertex 3.28169 -5.023 0
      vertex 4.58402 -5.29025 0
    endloop
  endfacet
  facet normal 0 0 -1
    outer loop
      vertex 2.9079 -6.36742 0
      vertex 1.47291 -5.8164 0
      vertex 3.28169 -5.023 0
    endloop
  endfacet
  facet normal 0 0 -1
    outer loop
      vertex 0.996203 -6.92875 0
      vertex 1.47291 -5.8164 0
      vertex 2.9079 -6.36742 0
    endloop
  endfacet
  facet normal 0 0 -1
    outer loop
      vertex 0.996203 -6.92875 0
      vertex -0.495476 -5.97951 0
      vertex 1.47291 -5.8164 0
    endloop
  endfacet
  facet normal 0 0 -1
    outer loop
      vertex -0.996203 -6.92875 0
      vertex -0.495476 -5.97951 0
      vertex 0.996203 -6.92875 0
    endloop
  endfacet
  facet normal 0 0 -1
    outer loop
      vertex -0.996203 -6.92875 0
      vertex -2.41017 -5.49464 0
      vertex -0.495476 -5.97951 0
    endloop
  endfacet
  facet normal 0 0 -1
    outer loop
      vertex -2.9079 -6.36742 0
      vertex -2.41017 -5.49464 0
      vertex -0.996203 -6.92875 0
    endloop
  endfacet
  facet normal 0 0 -1
    outer loop
      vertex -4.58402 -5.29025 0
      vertex -2.41017 -5.49464 0
      vertex -2.9079 -6.36742 0
    endloop
  endfacet
  facet normal 0 0 -1
    outer loop
      vertex -2.41017 -5.49464 0
      vertex -4.58402 -5.29025 0
      vertex -4.06369 -4.41434 0
    endloop
  endfacet
  facet normal 0 0 -1
    outer loop
      vertex -5.88877 -3.78448 0
      vertex -4.06369 -4.41434 0
      vertex -4.58402 -5.29025 0
    endloop
  endfacet
  facet normal 0 0 -1
    outer loop
      vertex -4.06369 -4.41434 0
      vertex -5.88877 -3.78448 0
      vertex -5.27684 -2.85568 0
    endloop
  endfacet
  facet normal 0 0 -1
    outer loop
      vertex -6.71645 -1.97213 0
      vertex -5.27684 -2.85568 0
      vertex -5.88877 -3.78448 0
    endloop
  endfacet
  facet normal 0 0 -1
    outer loop
      vertex -7 0 0
      vertex -5.91817 -0.987567 0
      vertex -6.71645 -1.97213 0
    endloop
  endfacet
  facet normal 0 0 -1
    outer loop
      vertex -5.27684 -2.85568 0
      vertex -6.71645 -1.97213 0
      vertex -5.91817 -0.987567 0
    endloop
  endfacet
  facet normal 0 0 -1
    outer loop
      vertex 5.6749 1.9482 0
      vertex 6.71645 1.97213 0
      vertex 6 0 0
    endloop
  endfacet
  facet normal -0 0 -1
    outer loop
      vertex 6.71645 1.97213 0
      vertex 5.6749 1.9482 0
      vertex 5.88877 3.78448 0
    endloop
  endfacet
  facet normal 0 0 -1
    outer loop
      vertex 4.73484 3.68528 0
      vertex 5.88877 3.78448 0
      vertex 5.6749 1.9482 0
    endloop
  endfacet
  facet normal 0 0 -1
    outer loop
      vertex 4.73484 3.68528 0
      vertex 4.58402 5.29025 0
      vertex 5.88877 3.78448 0
    endloop
  endfacet
  facet normal 0 0 -1
    outer loop
      vertex 3.28169 5.023 0
      vertex 4.58402 5.29025 0
      vertex 4.73484 3.68528 0
    endloop
  endfacet
  facet normal 0 0 -1
    outer loop
      vertex 3.28169 5.023 0
      vertex 2.9079 6.36742 0
      vertex 4.58402 5.29025 0
    endloop
  endfacet
  facet normal 0 0 -1
    outer loop
      vertex 1.47291 5.8164 0
      vertex 2.9079 6.36742 0
      vertex 3.28169 5.023 0
    endloop
  endfacet
  facet normal 0 0 -1
    outer loop
      vertex 1.47291 5.8164 0
      vertex 0.996203 6.92875 0
      vertex 2.9079 6.36742 0
    endloop
  endfacet
  facet normal 0 0 -1
    outer loop
      vertex -0.495476 5.97951 0
      vertex 0.996203 6.92875 0
      vertex 1.47291 5.8164 0
    endloop
  endfacet
  facet normal 0 0 -1
    outer loop
      vertex -0.495476 5.97951 0
      vertex -0.996203 6.92875 0
      vertex 0.996203 6.92875 0
    endloop
  endfacet
  facet normal 0 0 -1
    outer loop
      vertex -2.41017 5.49464 0
      vertex -0.996203 6.92875 0
      vertex -0.495476 5.97951 0
    endloop
  endfacet
  facet normal 0 0 -1
    outer loop
      vertex -2.41017 5.49464 0
      vertex -2.9079 6.36742 0
      vertex -0.996203 6.92875 0
    endloop
  endfacet
  facet normal 0 0 -1
    outer loop
      vertex -4.58402 5.29025 0
      vertex -2.41017 5.49464 0
      vertex -4.06369 4.41434 0
    endloop
  endfacet
  facet normal -0 0 -1
    outer loop
      vertex -2.41017 5.49464 0
      vertex -4.58402 5.29025 0
      vertex -2.9079 6.36742 0
    endloop
  endfacet
  facet normal 0 0 -1
    outer loop
      vertex -5.88877 3.78448 0
      vertex -4.06369 4.41434 0
      vertex -5.27684 2.85568 0
    endloop
  endfacet
  facet normal -0 0 -1
    outer loop
      vertex -4.06369 4.41434 0
      vertex -5.88877 3.78448 0
      vertex -4.58402 5.29025 0
    endloop
  endfacet
  facet normal 0 0 -1
    outer loop
      vertex -6.71645 1.97213 0
      vertex -5.27684 2.85568 0
      vertex -5.91817 0.987567 0
    endloop
  endfacet
  facet normal 0 0 -1
    outer loop
      vertex -5.91817 -0.987567 0
      vertex -7 0 0
      vertex -5.91817 0.987567 0
    endloop
  endfacet
  facet normal -0 0 -1
    outer loop
      vertex -5.27684 2.85568 0
      vertex -6.71645 1.97213 0
      vertex -5.88877 3.78448 0
    endloop
  endfacet
  facet normal -0 0 -1
    outer loop
      vertex -5.91817 0.987567 0
      vertex -7 0 0
      vertex -6.71645 1.97213 0
    endloop
  endfacet
  facet normal -0.75575 -0.654861 0
    outer loop
      vertex -4.58402 -5.29025 0
      vertex -5.88877 -3.78448 4
      vertex -5.88877 -3.78448 0
    endloop
  endfacet
  facet normal -0.75575 -0.654861 0
    outer loop
      vertex -5.88877 -3.78448 4
      vertex -4.58402 -5.29025 0
      vertex -4.58402 -5.29025 4
    endloop
  endfacet
  facet normal 0.909632 -0.415415 0
    outer loop
      vertex 5.88877 -3.78448 4
      vertex 6.71645 -1.97213 0
      vertex 6.71645 -1.97213 4
    endloop
  endfacet
  facet normal 0.909632 -0.415415 0
    outer loop
      vertex 6.71645 -1.97213 0
      vertex 5.88877 -3.78448 4
      vertex 5.88877 -3.78448 0
    endloop
  endfacet
  facet normal 0.540641 -0.841254 0
    outer loop
      vertex 2.9079 -6.36742 0
      vertex 4.58402 -5.29025 4
      vertex 2.9079 -6.36742 4
    endloop
  endfacet
  facet normal 0.540641 -0.841254 0
    outer loop
      vertex 4.58402 -5.29025 4
      vertex 2.9079 -6.36742 0
      vertex 4.58402 -5.29025 0
    endloop
  endfacet
  facet normal -0.281733 -0.959493 0
    outer loop
      vertex -2.9079 -6.36742 0
      vertex -0.996203 -6.92875 4
      vertex -2.9079 -6.36742 4
    endloop
  endfacet
  facet normal -0.281733 -0.959493 -0
    outer loop
      vertex -0.996203 -6.92875 4
      vertex -2.9079 -6.36742 0
      vertex -0.996203 -6.92875 0
    endloop
  endfacet
  facet normal -0.986361 -0.164595 0
    outer loop
      vertex 6 0 0
      vertex 5.6749 1.9482 4
      vertex 5.6749 1.9482 0
    endloop
  endfacet
  facet normal -0.986361 -0.164595 0
    outer loop
      vertex 5.6749 1.9482 4
      vertex 6 0 0
      vertex 6 0 4
    endloop
  endfacet
  facet normal 1 -0 0
    outer loop
      vertex -5.91817 -0.987567 4
      vertex -5.91817 0.987567 0
      vertex -5.91817 0.987567 4
    endloop
  endfacet
  facet normal 1 0 0
    outer loop
      vertex -5.91817 0.987567 0
      vertex -5.91817 -0.987567 4
      vertex -5.91817 -0.987567 0
    endloop
  endfacet
  facet normal -0.40169 -0.915776 -0
    outer loop
      vertex 1.47291 5.8164 2.5
      vertex 1.47291 5.8164 0
      vertex 1.5 5.80452 2.5
    endloop
  endfacet
  facet normal -0.401696 -0.915773 0
    outer loop
      vertex 1.5 5.80452 2.5
      vertex 3.28169 5.023 4
      vertex 1.5 5.80452 4
    endloop
  endfacet
  facet normal -0.401695 -0.915773 7.36843e-08
    outer loop
      vertex 3.28169 5.023 0
      vertex 1.5 5.80452 2.5
      vertex 1.47291 5.8164 0
    endloop
  endfacet
  facet normal -0.401696 -0.915773 0
    outer loop
      vertex 1.5 5.80452 2.5
      vertex 3.28169 5.023 0
      vertex 3.28169 5.023 4
    endloop
  endfacet
  facet normal -0.401696 0.915773 0
    outer loop
      vertex 3.28169 -5.023 4
      vertex 1.5 -5.80452 2.5
      vertex 1.5 -5.80452 4
    endloop
  endfacet
  facet normal -0.401696 0.915773 0
    outer loop
      vertex 3.28169 -5.023 0
      vertex 1.5 -5.80452 2.5
      vertex 3.28169 -5.023 4
    endloop
  endfacet
  facet normal -0.401695 0.915773 7.36843e-08
    outer loop
      vertex 1.47291 -5.8164 0
      vertex 1.5 -5.80452 2.5
      vertex 3.28169 -5.023 0
    endloop
  endfacet
  facet normal -0.40169 0.915776 0
    outer loop
      vertex 1.5 -5.80452 2.5
      vertex 1.47291 -5.8164 0
      vertex 1.47291 -5.8164 2.5
    endloop
  endfacet
  facet normal 0.245485 0.9694 0
    outer loop
      vertex -0.495476 -5.97951 2.5
      vertex -0.495476 -5.97951 0
      vertex -2.1 -5.57319 2.5
    endloop
  endfacet
  facet normal 0.245486 0.9694 -0
    outer loop
      vertex -2.1 -5.57319 2.5
      vertex -2.41017 -5.49464 4
      vertex -2.1 -5.57319 4
    endloop
  endfacet
  facet normal 0.245486 0.9694 0
    outer loop
      vertex -2.1 -5.57319 2.5
      vertex -2.41017 -5.49464 0
      vertex -2.41017 -5.49464 4
    endloop
  endfacet
  facet normal 0.245486 0.9694 1.44422e-08
    outer loop
      vertex -2.41017 -5.49464 0
      vertex -2.1 -5.57319 2.5
      vertex -0.495476 -5.97951 0
    endloop
  endfacet
  facet normal -0.677282 -0.735724 0
    outer loop
      vertex 3.28169 5.023 0
      vertex 4.73484 3.68528 4
      vertex 3.28169 5.023 4
    endloop
  endfacet
  facet normal -0.677282 -0.735724 -0
    outer loop
      vertex 4.73484 3.68528 4
      vertex 3.28169 5.023 0
      vertex 4.73484 3.68528 0
    endloop
  endfacet
  facet normal -0.879474 -0.475947 0
    outer loop
      vertex 5.6749 1.9482 0
      vertex 4.73484 3.68528 4
      vertex 4.73484 3.68528 0
    endloop
  endfacet
  facet normal -0.879474 -0.475947 0
    outer loop
      vertex 4.73484 3.68528 4
      vertex 5.6749 1.9482 0
      vertex 5.6749 1.9482 4
    endloop
  endfacet
  facet normal -0.0825792 -0.996585 0
    outer loop
      vertex -0.495476 5.97951 0
      vertex 1.47291 5.8164 2.5
      vertex -0.495476 5.97951 2.5
    endloop
  endfacet
  facet normal -0.0825792 -0.996585 -0
    outer loop
      vertex 1.47291 5.8164 2.5
      vertex -0.495476 5.97951 0
      vertex 1.47291 5.8164 0
    endloop
  endfacet
  facet normal 0.245486 -0.9694 0
    outer loop
      vertex -2.41017 5.49464 4
      vertex -2.1 5.57319 2.5
      vertex -2.1 5.57319 4
    endloop
  endfacet
  facet normal 0.245486 -0.9694 0
    outer loop
      vertex -2.41017 5.49464 0
      vertex -2.1 5.57319 2.5
      vertex -2.41017 5.49464 4
    endloop
  endfacet
  facet normal 0.245486 -0.9694 1.44422e-08
    outer loop
      vertex -0.495476 5.97951 0
      vertex -2.1 5.57319 2.5
      vertex -2.41017 5.49464 0
    endloop
  endfacet
  facet normal 0.245485 -0.9694 0
    outer loop
      vertex -2.1 5.57319 2.5
      vertex -0.495476 5.97951 0
      vertex -0.495476 5.97951 2.5
    endloop
  endfacet
  facet normal 0.945817 -0.324699 0
    outer loop
      vertex -5.91817 0.987567 4
      vertex -5.27684 2.85568 0
      vertex -5.27684 2.85568 4
    endloop
  endfacet
  facet normal 0.945817 -0.324699 0
    outer loop
      vertex -5.27684 2.85568 0
      vertex -5.91817 0.987567 4
      vertex -5.91817 0.987567 0
    endloop
  endfacet
  facet normal 0.945817 0.324699 0
    outer loop
      vertex -5.27684 -2.85568 4
      vertex -5.91817 -0.987567 0
      vertex -5.91817 -0.987567 4
    endloop
  endfacet
  facet normal 0.945817 0.324699 0
    outer loop
      vertex -5.91817 -0.987567 0
      vertex -5.27684 -2.85568 4
      vertex -5.27684 -2.85568 0
    endloop
  endfacet
  facet normal 0.546948 0.837166 -0
    outer loop
      vertex -2.41017 -5.49464 0
      vertex -4.06369 -4.41434 4
      vertex -2.41017 -5.49464 4
    endloop
  endfacet
  facet normal 0.546948 0.837166 0
    outer loop
      vertex -4.06369 -4.41434 4
      vertex -2.41017 -5.49464 0
      vertex -4.06369 -4.41434 0
    endloop
  endfacet
  facet normal 0.546948 -0.837166 0
    outer loop
      vertex -4.06369 4.41434 0
      vertex -2.41017 5.49464 4
      vertex -4.06369 4.41434 4
    endloop
  endfacet
  facet normal 0.546948 -0.837166 0
    outer loop
      vertex -2.41017 5.49464 4
      vertex -4.06369 4.41434 0
      vertex -2.41017 5.49464 0
    endloop
  endfacet
  facet normal 0.78914 -0.614213 0
    outer loop
      vertex -5.27684 2.85568 4
      vertex -4.06369 4.41434 0
      vertex -4.06369 4.41434 4
    endloop
  endfacet
  facet normal 0.78914 -0.614213 0
    outer loop
      vertex -4.06369 4.41434 0
      vertex -5.27684 2.85568 4
      vertex -5.27684 2.85568 0
    endloop
  endfacet
  facet normal -0.677282 0.735724 0
    outer loop
      vertex 4.73484 -3.68528 0
      vertex 3.28169 -5.023 4
      vertex 4.73484 -3.68528 4
    endloop
  endfacet
  facet normal -0.677282 0.735724 0
    outer loop
      vertex 3.28169 -5.023 4
      vertex 4.73484 -3.68528 0
      vertex 3.28169 -5.023 0
    endloop
  endfacet
  facet normal -0.986361 0.164595 0
    outer loop
      vertex 5.6749 -1.9482 0
      vertex 6 0 4
      vertex 6 0 0
    endloop
  endfacet
  facet normal -0.986361 0.164595 0
    outer loop
      vertex 6 0 4
      vertex 5.6749 -1.9482 0
      vertex 5.6749 -1.9482 4
    endloop
  endfacet
  facet normal -0.0825792 0.996585 0
    outer loop
      vertex 1.47291 -5.8164 0
      vertex -0.495476 -5.97951 2.5
      vertex 1.47291 -5.8164 2.5
    endloop
  endfacet
  facet normal -0.0825792 0.996585 0
    outer loop
      vertex -0.495476 -5.97951 2.5
      vertex 1.47291 -5.8164 0
      vertex -0.495476 -5.97951 0
    endloop
  endfacet
  facet normal 0.78914 0.614213 0
    outer loop
      vertex -4.06369 -4.41434 4
      vertex -5.27684 -2.85568 0
      vertex -5.27684 -2.85568 4
    endloop
  endfacet
  facet normal 0.78914 0.614213 0
    outer loop
      vertex -5.27684 -2.85568 0
      vertex -4.06369 -4.41434 4
      vertex -4.06369 -4.41434 0
    endloop
  endfacet
  facet normal -0.879474 0.475947 0
    outer loop
      vertex 4.73484 -3.68528 0
      vertex 5.6749 -1.9482 4
      vertex 5.6749 -1.9482 0
    endloop
  endfacet
  facet normal -0.879474 0.475947 0
    outer loop
      vertex 5.6749 -1.9482 4
      vertex 4.73484 -3.68528 0
      vertex 4.73484 -3.68528 4
    endloop
  endfacet
endsolid OpenSCAD_Model
